# xmcd
#
# Track frame offsets:
#	150
#	13455
#	25750
#	39645
#	52410
#	66067
#	79290
#	94680
#	111640
#	126362
#
# Disc length: 1927 seconds
#
# Revision: 4
# Processed by: cddbd v1.5.2PL0 Copyright (c) Steve Scherf et al.
# Submitted via: audiograbber 1.83.01
#
DISCID=9307850a
DTITLE=England, Ty - Two ways to fall
DYEAR=1996
DGENRE=Country
TTITLE0=It starts with 'l'
TTITLE1=Two ways to fall
TTITLE2=I'll take today
TTITLE3=Never say never
TTITLE4=The last dance
TTITLE5=Kick back
TTITLE6=Irresistible you
TTITLE7=Backslider's prayer
TTITLE8=All of the above
TTITLE9=Sure
EXTD=
EXTT0=
EXTT1=
EXTT2=
EXTT3=
EXTT4=
EXTT5=
EXTT6=
EXTT7=
EXTT8=
EXTT9=
PLAYORDER=
